<?xml version="1.0" encoding="utf-8"?>
<!-- Generator: Adobe Illustrator 25.4.1, SVG Export Plug-In . SVG Version: 6.00 Build 0)  -->
<svg version="1.1" id="Layer_1" xmlns="http://www.w3.org/2000/svg" xmlns:xlink="http://www.w3.org/1999/xlink" x="0px" y="0px"
	 viewBox="0 0 324.4 176.6" style="enable-background:new 0 0 324.4 176.6;" xml:space="preserve">
<style type="text/css">
	.st0{fill:#333333;}
	.st1{fill:#F81711;}
	.st2{fill:#E5E5E5;}
	.st3{fill:#EE2008;}
	.st4{fill:#1A1A1A;}
	.st5{fill:#2A0233;}
	.st6{fill:#102950;}
	.st7{fill:#2B5B7C;}
	.st8{fill:#4E042A;}
	.st9{fill:#A3194D;}
	.st10{fill:#6B0E7E;}
	.st11{fill:#440729;}
	.st12{fill:#820D54;}
	.st13{fill:#5E0F68;}
	.st14{fill:#190848;}
	.st15{fill:#6F0C1C;}
	.st16{fill:#F4AFB4;}
	.st17{fill:#F8A2A6;}
	.st18{fill:#610D26;}
	.st19{fill:#482175;}
	.st20{fill:#8B0409;}
	.st21{fill:#BD151C;}
	.st22{fill:#F0C44E;}
	.st23{fill:#EC9040;}
	.st24{fill:#6EBB37;}
	.st25{fill:#1F622B;}
	.st26{fill:#BF8719;}
	.st27{fill:#88A328;}
	.st28{fill:#D70F13;}
	.st29{fill:#FA8C25;}
	.st30{fill:#D62A26;}
	.st31{fill:#BB3348;}
	.st32{fill:#FCBF14;}
	.st33{fill:#C40F24;}
	.st34{fill:#A9103F;}
	.st35{fill:#1E274D;}
	.st36{fill:#EC8790;}
	.st37{fill:#EB2B19;}
	.st38{fill:#FC7210;}
	.st39{fill:#70BD5E;}
	.st40{fill:#E9473D;}
</style>
<path class="st0" d="M185.6,114.3L180,99.5h-19.8l-5.6,14.8h-1.6l16.4-42.7h1.5l16.4,42.7H185.6z M170,73.7l-9.3,24.4h18.8
	l-9.3-24.4H170z"/>
<path class="st0" d="M191.2,114.3h-1.5V71.7h24.1V73h-22.7v18.7h20.9v1.4h-20.9V114.3z"/>
<path class="st0" d="M219.5,95.7v18.6H218V71.7h13.2c4.3,0,7.6,1.1,10,3.2c2.5,2.2,3.8,5.5,3.7,8.8c0.1,2.8-0.9,5.6-2.7,7.8
	c-2,2.2-4.6,3.5-7.5,3.9l11.3,18.9h-1.7l-11.1-18.7c-0.7,0-1.3,0.1-2,0.1L219.5,95.7z M219.5,73v21.3h11.7c3.8,0,6.8-1,9-2.9
	c4.3-4.2,4.4-11.2,0.1-15.5c0,0-0.1-0.1-0.1-0.1c-2.2-1.9-5.2-2.8-9-2.8L219.5,73z"/>
<path class="st0" d="M250.9,114.3h-1.5V71.7h1.5V114.3z"/>
<path class="st0" d="M273.2,114.9c-5.2,0.2-10.2-2-13.5-6c-3.4-4-5.1-9.4-5.1-16.2c0-6.6,1.7-11.9,5-15.8s7.9-5.8,13.6-5.8
	c4.1-0.1,8.1,1.4,11.1,4.2c3.1,2.5,5,6.2,5.4,10.2h-1.4c-0.4-3.6-2.1-6.9-4.9-9.2c-2.8-2.5-6.4-3.8-10.1-3.7
	c-5.2,0-9.4,1.8-12.5,5.5s-4.6,8.6-4.6,14.8c0,6.4,1.6,11.5,4.7,15.2c3,3.7,7.7,5.8,12.5,5.6c3.7,0.1,7.3-1.1,10.3-3.4
	c2.8-2.1,4.5-5.3,4.8-8.8h1.4c-0.2,2.5-1.1,5-2.6,7.1c-1.5,2.1-3.5,3.7-5.9,4.8C278.8,114.3,276,114.9,273.2,114.9z"/>
<path class="st0" d="M322.7,114.3l-5.6-14.8h-19.8l-5.6,14.8h-1.6l16.4-42.7h1.5l16.4,42.7L322.7,114.3z M307.2,73.7l-9.3,24.4h18.8
	l-9.3-24.4H307.2z"/>
<path class="st0" d="M161.6,121.9h12.9c6.5,0,11.5,1.9,15.1,5.6c3.5,3.7,5.3,9,5.3,15.8c0,6.8-1.8,12.1-5.3,15.8
	c-3.5,3.7-8.6,5.6-15.1,5.6h-12.9V121.9z M163.1,123.3v39.9h11.3c6.1,0,10.8-1.7,14-5.2c3.3-3.4,4.9-8.4,4.9-14.8
	c0-6.4-1.6-11.3-4.9-14.8c-3.3-3.4-8-5.2-14-5.2L163.1,123.3z"/>
<path class="st0" d="M226.4,164.6l-5.6-14.8H201l-5.6,14.8h-1.6l16.4-42.7h1.5l16.4,42.7H226.4z M210.8,124l-9.3,24.4h18.8L211,124
	L210.8,124z"/>
<path class="st0" d="M238.1,164.6h-1.5v-18.7l-15.6-24h1.8l14.5,22.4h0.1l14.5-22.4h1.7l-15.6,24V164.6z"/>
<path class="st1" d="M166.3,52.8c0.1-0.7,0.3-1.3,0.5-2c0.3-0.6,0.7-1.1,1.1-1.5c0.5-0.4,1-0.8,1.6-1c0.7-0.2,1.4-0.4,2.1-0.3
	c0.7,0,1.4,0.1,2.1,0.4c0.6,0.2,1.1,0.6,1.5,1c0.4,0.4,0.7,0.9,0.9,1.4c0.2,0.5,0.3,1.1,0.3,1.6c0,0.6-0.1,1.2-0.4,1.7
	c-0.2,0.5-0.6,1-0.9,1.4c-0.4,0.4-0.9,0.8-1.3,1.2c-0.5,0.4-1,0.7-1.6,1.1c-0.5,0.3-0.9,0.7-1.4,1c-0.4,0.3-0.8,0.6-1.2,1
	c-0.4,0.3-0.7,0.7-1,1.1c-0.3,0.4-0.5,0.8-0.6,1.3h8.4v1.6h-10.2v-1.6c0.2-0.6,0.4-1.2,0.8-1.7c0.4-0.5,0.8-1,1.2-1.5
	c0.5-0.5,1-0.9,1.5-1.3c0.5-0.4,1-0.8,1.5-1.1c0.4-0.3,0.9-0.6,1.3-0.9c0.4-0.3,0.8-0.6,1.1-1c0.3-0.3,0.6-0.6,0.8-1
	c0.2-0.3,0.3-0.7,0.3-1.1c0-0.5-0.1-1-0.2-1.4c-0.1-0.4-0.4-0.8-0.7-1.1c-0.3-0.3-0.6-0.5-1-0.6c-0.4-0.1-0.8-0.2-1.2-0.2
	c-0.5,0-1,0.1-1.4,0.2c-0.8,0.3-1.5,1-1.9,1.8c-0.2,0.5-0.3,0.9-0.3,1.4L166.3,52.8z"/>
<path class="st1" d="M208.1,52.8c0.1-0.7,0.3-1.3,0.5-2c0.3-0.6,0.7-1.1,1.1-1.5c0.5-0.4,1-0.8,1.6-1c0.7-0.2,1.4-0.4,2.1-0.3
	c0.7,0,1.4,0.1,2.1,0.4c0.6,0.2,1.1,0.6,1.5,1c0.4,0.4,0.7,0.9,0.9,1.4c0.2,0.5,0.3,1.1,0.3,1.6c0,0.6-0.1,1.2-0.4,1.7
	c-0.2,0.5-0.6,1-0.9,1.4c-0.4,0.4-0.9,0.8-1.3,1.2c-0.5,0.4-1,0.7-1.6,1.1c-0.5,0.3-0.9,0.7-1.4,1c-0.4,0.3-0.8,0.6-1.2,1
	c-0.4,0.3-0.7,0.7-1,1.1c-0.3,0.4-0.5,0.8-0.6,1.3h8.4v1.6h-10.2v-1.6c0.2-0.6,0.4-1.2,0.8-1.7c0.4-0.5,0.8-1,1.2-1.5
	c0.5-0.5,1-0.9,1.5-1.3c0.5-0.4,1-0.8,1.5-1.1c0.4-0.3,0.9-0.6,1.3-0.9c0.4-0.3,0.8-0.6,1.1-1c0.3-0.3,0.6-0.6,0.8-1
	c0.2-0.3,0.3-0.7,0.3-1.1c0-0.5-0.1-1-0.2-1.4c-0.1-0.4-0.4-0.8-0.7-1.1c-0.3-0.3-0.6-0.5-1-0.6c-0.4-0.1-0.8-0.2-1.2-0.2
	c-0.5,0-1,0.1-1.4,0.2c-0.8,0.3-1.5,1-1.9,1.8c-0.2,0.5-0.3,0.9-0.3,1.4L208.1,52.8z"/>
<path class="st1" d="M191.1,56c0,1.1-0.1,2.2-0.3,3.3c-0.2,0.9-0.5,1.8-1,2.5c-0.8,1.4-2.4,2.2-4,2.2c-0.8,0-1.6-0.2-2.3-0.6
	c-0.7-0.4-1.3-0.9-1.7-1.6c-0.5-0.8-0.8-1.6-1-2.5c-0.5-2.2-0.5-4.4,0-6.6c0.2-0.9,0.5-1.8,1-2.5c0.4-0.7,1-1.2,1.7-1.6
	c1.5-0.8,3.2-0.8,4.7,0c0.7,0.4,1.3,1,1.7,1.6c0.5,0.8,0.8,1.6,1,2.5C191,53.8,191.1,54.9,191.1,56z M182,56c0,1,0.1,2,0.3,3
	c0.1,0.7,0.4,1.4,0.8,2.1c0.3,0.5,0.7,0.9,1.2,1.2c0.9,0.5,2,0.5,2.9,0c0.5-0.3,0.9-0.7,1.2-1.2c0.4-0.6,0.6-1.3,0.8-2.1
	c0.2-1,0.3-2,0.3-3c0-1-0.1-2-0.3-3c-0.2-0.7-0.4-1.5-0.8-2.1c-0.3-0.5-0.7-0.9-1.2-1.2c-0.9-0.5-2-0.5-2.9,0
	c-0.5,0.3-0.9,0.7-1.2,1.2c-0.4,0.7-0.6,1.4-0.8,2.1C182.1,54,182,55,182,56L182,56z"/>
<path class="st1" d="M194.7,52.8c0.1-0.7,0.3-1.3,0.5-2c0.3-0.6,0.7-1.1,1.1-1.5c0.5-0.4,1-0.8,1.6-1c0.7-0.2,1.4-0.4,2.1-0.3
	c0.7,0,1.4,0.1,2.1,0.4c0.6,0.2,1.1,0.6,1.5,1c0.4,0.4,0.7,0.9,0.9,1.4c0.2,0.5,0.3,1.1,0.3,1.6c0,0.6-0.1,1.2-0.4,1.7
	c-0.2,0.5-0.6,1-0.9,1.4c-0.4,0.4-0.9,0.8-1.3,1.2c-0.5,0.4-1,0.7-1.6,1.1c-0.5,0.3-0.9,0.7-1.4,1c-0.4,0.3-0.8,0.6-1.2,1
	c-0.4,0.3-0.7,0.7-1,1.1c-0.3,0.4-0.5,0.8-0.6,1.3h8.4v1.6h-10.2v-1.6c0.2-0.6,0.4-1.2,0.8-1.7c0.4-0.5,0.8-1,1.2-1.5
	c0.5-0.5,1-0.9,1.5-1.3c0.5-0.4,1-0.8,1.5-1.1c0.4-0.3,0.9-0.6,1.3-0.9c0.4-0.3,0.8-0.6,1.1-1c0.3-0.3,0.6-0.6,0.8-1
	c0.2-0.3,0.3-0.7,0.3-1.1c0-0.5-0.1-1-0.2-1.4c-0.1-0.4-0.4-0.8-0.7-1.1c-0.3-0.3-0.6-0.5-1-0.6c-0.4-0.1-0.8-0.2-1.2-0.2
	c-0.5,0-1,0.1-1.4,0.2c-0.8,0.3-1.5,1-1.9,1.8c-0.2,0.5-0.3,0.9-0.3,1.4L194.7,52.8z"/>
<path class="st2" d="M131.4,42.5l1.1,2.4c-2,1.5-3.9,3.2-6.5,2.8c-5.6-0.8-11.2-1.3-16.8-2.5c-5.1-1.1-9.7-0.7-13.8,3.4
	c-0.7,0.6-1.5,1.1-2.2,1.6c-0.7,0.6-1.6,0.8-2.4,0.6c-4.9-1-9.8-2-14.8-2.8c-3.2-0.6-6.4-1.7-9.7-1.5c-3.4,0.2-6.8,0.6-10.2,0.9
	c-5.9,0.5-11.8,1-17.7,1.5c-0.6,0.1-1.6-0.3-1.1,1.2c-0.4,3.8,2.6,4.8,3.9,7.3c0.4,1.9,1.5,0.9,2.2,0.6c7.5-2.4,15-4.9,22.5-7.5
	c1.3-0.5,2.8-0.5,4.2,0c6.4,2.1,12.8,4.2,19.2,6.3c1,0.4,2.2,0.2,3-0.6c2.9-2.6,5.9-4.9,8.7-7.5c0.9-1,2.3-1.3,3.5-0.8
	c7.3,2.5,14.7,4.8,22.1,7.3c1.4,0.5,2.8,0.4,4.1-0.2c2.8-1.2,5.4-3.1,8.4-3.6c0.2,0.4,0.5,0.7,0.6,1.1c0.1,3.2,1.6,4.6,4.2,3.8
	c2.5-0.8,5.1-1.6,7.6-2.5c1.3-0.5,1.9-0.2,1.4,1.7c-0.6,2.3-1.1,4.6-1.7,7c-4.7,1.6-9.3,3.2-14,4.8c-1,0.4-2.1,0.4-3.1,0.2
	c-8.1-2.2-16.3-4.4-24.4-6.6c-1.1-0.4-2.4,0-3.1,1c-3.1,3.3-6.3,6.4-9.3,9.6c-0.7,1-2,1.3-3.1,0.8c-5.7-2-11.4-3.8-17.1-5.7
	c-1-0.4-2.1-0.5-3.1-0.1c0.9,3,1.5,3.4,4,2.8c2-0.5,3.2,0.2,3.4,2.5c0.1,1.7,0.7,1.9,1.8,2.1c4.2,0.5,8.4,1.2,12.5,1.8
	c1,0.1,1.9-0.2,2.6-0.8c2.7-1.8,5.4-3.6,8-5.5c0.7-0.6,1.5-0.9,2.4-0.8c2.1,0.3,4.1,0.6,6.2,0.7c9.4,0.5,18.7,3.2,28.1,1.3
	c1.5-0.3,3.1-0.3,4.7-0.5l-8.2,9.9c-3.1,3.4-5.5,7.3-7,11.7c-6.8-1.5-13.6-3.8-19.5,2.9c-0.4,0.3-0.7,0.6-1.1,0.8
	c-0.7,0.7-1.7,0.9-2.6,0.6c-7.1-1.5-14.2-2.8-21.3-4.2c-0.5-0.1-1.2-0.4-1.6,0.2c-0.4,0.7,0.3,1.2,0.6,1.7L87,94c0,1,0.6,1,1.2,1.2
	c6.6,2.3,13.3,4.5,19.9,6.8c0.9,0.3,1.9,0,2.5-0.7c2.9-2.6,5.8-5.1,8.6-7.8c0.7-0.8,1.9-1.1,2.9-0.7c3.6,1.2,7.3,2.2,11,3.4
	c0.1,0.2,0.2,0.4,0.2,0.7c0,0.2,0,0.5,0,0.7c-0.1,0.1-0.2,0.2-0.2,0.3c-1-0.5-2.2-0.7-3.3-0.7c-2.4,0.4-4,2.2-4.9,4.8
	c-0.8,1.8-0.5,3.8,0.7,5.3c1.4,1.8,3.9,2.5,5.9,1.5c1.2-0.5,2-1.5,3.1-2.2c0,1.4,0,2.8,0,4.2c-0.1,0.1-0.1,0.3-0.1,0.4l-0.5,0.5
	c-0.9,0.3-1.8,0.5-2.7,0.9c-5.7,2.4-11.3,4.7-17,7.1c-1.2,0.5-2.5,0.6-3.8,0.2c-5.9-1.7-11.9-3.1-17.7-5.1c-2.7-0.9-4.3,0.2-6,2.1
	c-1,1.1-0.5,1.9-0.1,2.9c0.6,1.4,1.3,0.6,1.9,0c0.6-0.6,1.4-0.9,2.2-0.7c2.8,0.4,5.5,0.9,8.3,1.2c7.3,1,14.5,3.1,21.9,0.8
	c1.3-0.3,2.5-0.5,3.8-0.6c-0.7,1.3-0.8,2.8-0.2,4.2c0.7,1.5,0.7,3.2,0.1,4.8c-0.1-0.1-0.2-0.3-0.2-0.4c-0.6-4.1-2.1-5.5-5.1-5.2
	c-3.9,0.4-5.3,2-5.4,6.2c0,1.5,0,3,0,4.4c0.1,3.6,1.1,4.9,4.2,5.2c-0.6,1.6-1.5,3-2.8,4.2c-6.1-1.5-12.1-3-18.2-4.4
	c-1.3-0.3-2.5,0-2.1,2.3l1.3,3c0.1,1.3,1,1,1.6,1.1c4.9,0.5,9.8,1,14.7,1.5c-2.1,2.7-4.5,4.7-7.7,5.1c-2.2,0.2-4.4,0.8-6.6,1.2
	c-2.7,0.4-4.1-1.1-4-4.3c0.1-1.5-0.2-2.9-1-4.2c-3.2-4.3-4.1-9.9-5.5-15.2c-0.7-2.8-1.7-5.5-3.1-8c-1.9-3.4-2-7.5-0.2-11
	c3.6-6.5,1.3-12-1-17.6c-1.3-2.8-2.7-5.5-4.4-8.1c-0.8-1.2-1-2.8-0.5-4.1c0.6-2.5,0.8-5,0.5-7.5c-0.1-2.2-1.3-3.2-2.9-2.8
	c-2.1,0.6-3.7,0.7-4.6-2.3c-0.3-1-1.3-1.6-2.4-1.4c-1.1,0.1-1.5-1.3-1.5-1.3c-7.1-6.3-16.5-0.6-16.5-0.6l-5.4,0.1
	c0,0-5.1-0.5-6.4-4.3c-0.8-2-1.9-3.8-3.5-5.3c-1.8-1.9-1.6-4.6-1.2-7.1c1-4.9,1.7-9.7,2.2-14.7c0.3-2.7,2.3-5.4,4.4-7.2
	c-0.1,1.5-1.1,2.4-1.7,3.6c-0.6,1-0.8,2.1-0.8,3.2c0.2,2.2,0,4.5-0.6,6.7c-0.5,1.4-0.1,1.8,1,2c5.4,1,11,0.9,16.3-0.3
	c1.4-0.3,1.7-1.1,1.1-2.7c-2.5-6.6-5.5-13.1-9-19.3c1.8-1.6,3.1-3.5,4-5.7c1.2-2.7,2.8-5.6,5.5-6.8c0.3,0.2,0.5,0.6,0.9,0.7
	c6.7,2,13.4,4,20.1,6c0.5,0.2,1.2,0.2,1.6-0.2c2-1.7,4.2-3.2,6.1-5.2c2.2-0.7,3.9,0.4,5.5,2c0.6,0.7,1.4,1.3,2.2,1.8
	c0.8,0.4,1.5,0.8,2.3,1.1c0.4,0.2,1,0.8,1.1,0.3c0.3-2.2,2.5-2.1,3-4h0l1.7-0.7c3.3,1.8,6.8,3.2,10.5,4c0.7,0.2,1.4,0.2,2.1-0.2
	c2.2-1.5,4.5,0,6.7,0.2c1.4,0.1,2.1,5,1,6.2c-0.7,0.8-0.8-0.8-1.4-0.5c-0.2,1,0.9,1.5,0.7,2.5c-2.5,5.3-3.9,11.2-5.7,16.8
	c-0.8,2.5,0,3.3,1.8,3.6C122.2,43,126.9,43.2,131.4,42.5z M90.1,128.6l1.6,5.8c0.2,1.1,0.1,2.4,1.1,2.9c1.8,1,5.7-1.5,6.1-3.8
	c0.4-3-0.3-6-1.9-8.6c-1.2-2-3-0.8-4.6-0.5C89.3,124.9,89.2,125.1,90.1,128.6z M65.3,16.2c-3.1-0.1-6.1,0.2-9.1,0.9
	c-0.9,0.2-1.7,0.5-1.2,2c3,7.8,6.2,15.5,10.7,22.3c1.3,2,1.9,1.8,2.9-0.5c3-6.7,5.1-13.8,7.2-20.9c0.5-1.6,0-2.4-1.4-2.7
	C71.4,16.5,68.4,16.1,65.3,16.2z M86.7,43c3-0.3,6-0.3,8.9-1c1.3-0.3,1.8-0.9,1.1-2.6c-2.7-7.1-5.9-14-9.7-20.6
	c-2-3.4-2.7-3.3-4.2,0.4c-2.6,6.5-4.9,13.1-6.7,19.8c-0.5,1.9,0.1,2.5,1.5,2.9C80.5,42.7,83.6,42.7,86.7,43z M105.2,16.2
	c-3.2-0.1-6.3,0.2-9.4,1c-1.2,0.3-1.6,0.8-1,2.3c2.7,7.5,6.2,14.6,10.2,21.5c1.6,2.6,2.2,2.5,3.5-0.3c2.8-6.7,5.2-13.7,7.1-20.8
	c0.4-1.6,0-2.2-1.3-2.6C111.3,16.5,108.2,16.1,105.2,16.2z M116.3,115c3.4,0,6.3-3.1,6.3-6.9c0-3.8-2.3-6.6-5.2-6.9
	c-3.1-0.3-5.9,4.4-5.9,7.9S113.6,115,116.3,115L116.3,115z M106,137.7c4,0.1,5.3-1.3,5.3-5.8c0.1-5.7-1.2-7.2-6.1-7.3
	c-2.8,0-4.1,1.6-4.1,5.5C101,136,102,137.6,106,137.7z M103.9,115c2.5,0.2,4.7-1.7,4.9-4.2c0-0.2,0-0.3,0-0.5
	c0.1-3.4-2.1-6.2-4.9-6.2c-3-0.1-5.6,2.2-5.7,5.2C98.4,112.3,100.8,114.8,103.9,115z M89.1,111.3c2.2,0,4.3-1,5.8-2.6
	c1.7-1.8,1.8-4.6,0.2-6.4c-1.1-1.6-2.9-2.5-4.8-2.4c-0.7,0-1.7-0.2-1.7,1.3c0.1,1.5,1,0.8,1.6,0.8c1.3,0.1,2.7,0.3,3.1,2.1
	c0.3,1.5-0.1,3.1-1.3,4.1c-1,1.1-2.5,1.4-3.8,1c-0.6-0.1-1.3-1.4-1.7,0.2c-0.4,1.4,0.6,1.6,1.3,1.9
	C88.3,111.3,88.7,111.3,89.1,111.3L89.1,111.3z M115.4,86.9c0.9-4.3,0.7-8.8-0.8-12.9C114.1,78.3,114.4,82.7,115.4,86.9L115.4,86.9z
	 M123.3,85.8c1.7-2.6,2.5-10.8,1.4-13.2C123.5,77.1,123.5,81.4,123.3,85.8L123.3,85.8z M101.6,76.5c-1.3,4.7-0.3,9.4,0.1,14
	C102.7,85.9,102.6,81.1,101.6,76.5L101.6,76.5z M133.5,73.8c-1.4,4.6-1.2,8.9-2,12.9c0,0.3,0.2,0.6,0.5,0.7c0.4,0.1,0.6-0.4,0.7-0.8
	c0.4-1.8,0.7-3.7,1-5.6C134,78.9,134.4,76.7,133.5,73.8L133.5,73.8z M108.1,75.5c-0.6,4.8-0.6,9.6,0.1,14.4
	C109.1,85.1,109.1,80.2,108.1,75.5L108.1,75.5z M112.1,88c1.2-4,0.6-11.5-1-13.6C110.9,78.9,111.2,83.5,112.1,88L112.1,88z
	 M104.9,89.9c1.4-2.5,1.2-12.1-0.2-14.3C104.5,80.4,104.5,85.1,104.9,89.9L104.9,89.9z M118,73.8c-0.9,3.4-0.3,11,1.1,12.9
	C119.2,82.1,119.2,77.9,118,73.8z M86.6,76.5c-0.2,3.8-0.9,7.6,0.7,11.2C88,83.9,88.1,80.2,86.6,76.5z M83.1,77
	c-0.2,3.5-0.9,7.1,0.9,10.3C84.4,83.8,84.9,80.3,83.1,77L83.1,77z M121.7,72.8c-1.1,3.7-1.3,7.6-0.7,11.4
	C122.5,80.5,122.2,76.7,121.7,72.8L121.7,72.8z M97.3,89.1c1.9-3.1,2.2-8.3,0.6-10.8C97,81.8,97.3,85.1,97.3,89.1L97.3,89.1z
	 M94.2,88.5c1.5-3.1,1.6-6.7,0.5-9.9C93.5,81.8,94,85.1,94.2,88.5L94.2,88.5z M102.4,58.4c1-0.1,2-0.5,2-2c0.1-1.2-0.8-2.2-2-2.3
	c-0.1,0-0.1,0-0.2,0c-1.1-0.1-1.9,0.3-1.9,1.8c-0.2,1.2,0.6,2.3,1.8,2.5C102.2,58.4,102.3,58.4,102.4,58.4L102.4,58.4z M129.4,86.5
	c1.8-3.3,2.1-9.4,0.8-11.6C129.3,78.5,129.4,82.1,129.4,86.5L129.4,86.5z M90.3,88.4c1.6-2.7,1.7-7.9,0.3-10
	C90,81.7,89.8,85.1,90.3,88.4z M127.8,73.3c-0.9,3.2-1.6,6.4-1,9.8C128.2,80.1,128.5,76.6,127.8,73.3L127.8,73.3z M49,64.4
	c1-0.3,1.9-0.8,1.9-2.2c0.1-0.9-0.6-1.7-1.5-1.8c-0.1,0-0.2,0-0.3,0c-1.1,0-1.9,0.9-1.8,2c0,0,0,0.1,0,0.1
	C47.3,63.8,48.1,64.2,49,64.4L49,64.4z M138.8,58.3c-1.3,0-1.9,0.9-2,2.2c-0.1,1,0.3,1.9,1.3,1.9c1.3,0,1.7-1.1,1.9-2.3
	c0.2-0.8-0.2-1.6-1-1.8C139,58.3,138.9,58.3,138.8,58.3L138.8,58.3z M112.1,58.2c0.9-0.3,1.9-0.6,1.8-2.1c0-1.2-0.7-2-1.7-1.9
	c-1.1,0.1-1.9,1.1-1.7,2.2c0,0,0,0,0,0C110.6,57.7,111.1,58.2,112.1,58.2L112.1,58.2z M69.5,57c0.1-1.1-0.7-2.1-1.8-2.3
	c0,0-0.1,0-0.1,0c-0.9-0.1-1.3,0.7-1.3,1.6c-0.2,1.2,0.6,2.2,1.8,2.4C69,59,69.4,58.1,69.5,57z M78.4,60.4c-0.2-1-0.6-1.9-1.5-1.9
	c-0.9,0.1-1.5,1-1.4,2.2c0,0.9,0.4,1.8,1.3,1.7C77.8,62.3,78.3,61.5,78.4,60.4z M130.2,62.6c1-0.1,1.7-0.9,1.7-1.9
	c0-1.1-0.6-1.8-1.5-1.8c-1,0-1.8,0.8-1.8,1.8c0,0.1,0,0.2,0,0.2C128.5,62.2,129.3,62.6,130.2,62.6z M97.3,63.1
	c0-1.2-0.6-1.7-1.5-1.7c-0.9-0.1-1.7,0.5-1.8,1.4c0,0.1,0,0.2,0,0.3c-0.1,1.3,0.6,1.6,1.5,1.7c0.9,0.1,1.7-0.5,1.9-1.4
	C97.3,63.2,97.3,63.2,97.3,63.1z M136.2,81.6c1-2.1,1.6-4.3,0.8-6.8C135.9,76.9,135.6,79.3,136.2,81.6L136.2,81.6z M91.2,105
	c-0.2-1-0.9-1.6-1.7-1.5c-1.3,0.2-1.1,1.8-1.4,2.9c-0.3,0.9,0.6,0.8,1,0.8C90.2,107.2,90.9,106.5,91.2,105L91.2,105z M87.4,62.5
	c-0.2-0.9-0.7-1.6-1.6-1.6c-0.9,0-1.3,0.6-1.3,1.7c0.1,1.2,0.6,2,1.6,1.9C86.9,64.4,87.3,63.7,87.4,62.5L87.4,62.5z M58.2,60.9
	c0.8-0.2,1.4-1,1.4-1.8c0-1.1-0.6-1.8-1.4-1.8c-0.9,0-1.3,1-1.3,2C56.8,60.2,57.1,60.9,58.2,60.9L58.2,60.9z M146,61.4
	c0.8,0,1.3-0.6,1.4-1.6c0.1-0.9-0.1-1.9-0.9-2c-1-0.2-1.4,0.7-1.5,1.7S145.1,61.3,146,61.4L146,61.4z M122.6,59.2
	c0-0.9-0.6-1.7-1.5-1.8c-0.7-0.1-1.1,0.6-1,1.4c0.1,1.1,0.4,2.1,1.5,2.2C122.3,60.9,122.6,60.3,122.6,59.2L122.6,59.2z"/>
<path class="st3" d="M132.7,22.2c-2.4,0-3.3-1.4-3.2-3.1c0.1-1.8,0.8-3.7,3-3.8c1.7-0.1,3.2,1.2,3.3,2.9c0,0.2,0,0.3,0,0.5
	C135.9,20.8,134.4,21.8,132.7,22.2z"/>
<path class="st3" d="M76.7,54.5c-2.1,0.9-3.4,2.6-5.2,3.8c-1.1,0.9-2.4,1.6-3.8,1.9c-0.7-0.1-1.8,0.5-2.3-0.2
	c5.3-3.2,9.9-7.1,14.8-10.7c0.5-0.5,0.9-0.9,1.5-1.2c7.7-3.8,13.7-9.7,21-13.9c2.5-1.5,4.9-3.6,8.1-4c1.2-0.2,1.8-1.1,2.5-1.9
	c2.4-2.9,6-4.5,9.6-6c0.7-0.3,0.9,0.3,1.3,0.5c-2,2.8-5.7,3.8-8.6,5.5C102.7,36.2,90.2,44.5,78,53.1C77.5,53.5,77.1,54,76.7,54.5z"
	/>
<path class="st4" d="M107.6,11.8c-8.6,0-16.9-2.5-25.2-4.2c0.5,1.8,1.9,3.2,3.8,3.5c3.5,0.9,7,2.5,10.6,2.6
	C100.4,13.9,104,12.5,107.6,11.8z"/>
<path class="st4" d="M115.5,28.3c-4.3-4.8-5.6-11.2-9.1-16.4C112,16.1,113.4,22.4,115.5,28.3z"/>
<path class="st5" d="M64.2,138.7c-3-3-2.4-6.5-1.5-10.1c0.7-1.2-0.1-3,1.5-3.9c6.1-2.4,11.1-6.8,16.5-10.4
	c10.1-6.6,19.9-13.8,30.3-20.1c7.5-4.5,15.2-8.5,22.8-12.8c2-1.3,4.4-1.7,6.8-1.3c1.2,1.8-0.5,2.6-1.4,3.5
	c-4.2,4.6-9.1,8.5-12.7,13.6c-1.3,1.8-2.4,3.6-3.5,5.6c-2.9,4.4-8.2,5.4-12.1,8.5c-1.8,1.2-3.7,2.3-5.7,3.3c-2,1-3.6,2.6-5.7,3.3
	c-7.3,2.2-13,7.2-18.9,11.6c-4.4,3.3-9.4,5.6-13.5,9.4c-0.6,0.8-1.6,0.9-2.4,0.4C64.5,139.2,64.3,139,64.2,138.7z"/>
<path class="st6" d="M76,173.3c-1-2.5-1-5.4-2.6-7.8c-0.2-0.9-0.2-1.8,0-2.8c14.8-13.9,28.7-29,46.7-39c1.5-0.8,2.2-2.7,4.1-2.7
	c0.6,0.3,0.9,0.8,1,1.4c-0.1,2.5,0.4,5-1.1,7.3c-1.9,3-5.2,4.2-7.8,6.4c-3.2,2.7-5.5,5.5-3.7,10c-0.5,3.2-3.6,3.4-5.6,4.9
	c-8.3,6-16.6,12.1-24.5,18.7C80.7,171.3,79,173.7,76,173.3z"/>
<path class="st4" d="M104.4,162.1c-4.3,7.1-9.1,13.5-18.7,13.2c-2-0.1-3.7,1.4-5.7,1c0.9-5.1,4-8.3,8.2-11.1c4.2-2.9,8.1-6.1,12-9.4
	c1.2-1,2.3-2.6,4-1.5c1.6,1.1,1,3,0.9,4.7C105,160.1,103.4,160.8,104.4,162.1z"/>
<path class="st7" d="M139.8,144.7c-0.7,2.1-1.3,4.3-2,6.4c-0.9,2.6-2.9,3.6-5.6,3.2c-2.6-0.4-3.3-2.2-3.4-4.5
	c-0.1-1.7-0.1-3.4-0.1-5.1c1.3-1.8,1.7-4.1,3.2-5.9c2.4-0.9,4.6-2.3,6.6-4c1.1-0.9,2.3-2.4,4-0.9C143.1,138,141,141.3,139.8,144.7z"
	/>
<path class="st4" d="M104.4,162.1c-0.5,0.1-1.4,0.8-1.5-0.3c0-0.7,0.6-1.4,0.9-2.1c0.8-1.6,1.2-3.9,0-4.8c-1.5-1.2-2.9,0.8-4.1,1.9
	c-4.7,4.5-10.2,8-15.2,12.1c-1.2,1-3.6,1.8-2,4.6c0.7,1.3-2.5,1-2.7,2.6c-2.9,1.1-3.7-0.6-4-3c5.5-3,9.7-7.8,14.8-11.4
	c6.6-4.5,12.2-10.4,19.7-13.6c0.9-0.4,1.4-1.4,2.1-2.2c0.2,2.1-0.4,4.1-1.5,5.8c-5,0.8-4.8,4.8-5.2,8.4L104.4,162.1z"/>
<path class="st8" d="M64.2,138.7c0.6,0.1,1.5,0.5,1.8,0.2c7.6-6.3,16.1-11.5,24.1-17.2c2.8-2,5.5-4.4,9.3-4.4
	c-0.5,3-3.6,3.3-5.2,5.2c-4.4,3.3-9.2,5.8-13.3,9.4c-4.8,3.3-9.2,7.2-14.2,10.2c-0.9,0.1-1.3-0.6-1.9-1.1
	C64.4,140.4,64.1,139.5,64.2,138.7z"/>
<path class="st9" d="M68.3,148.1l-0.2,0l-0.2,0c-1-2.4-2-4.7-2.9-7.1l1.7,0.7c1.3,1.2,2.3,2.8,3.8,3.8
	C70.8,147.3,69.9,148,68.3,148.1z"/>
<path class="st4" d="M105.9,160.4c-0.1-7.4,0.3-7.9,5.2-8.4C107.2,153.4,106.7,156.9,105.9,160.4z"/>
<path class="st10" d="M74.3,160.6c-2.7-0.2-3.6-1.9-3.8-4.4c-0.2-2.2-1-4.3-0.7-6.5c-0.3-2.5,1.8-3.8,3.3-4.9
	c6.1-4.6,10.3-11.1,16.3-15.6c5.9-4.4,10.7-9.8,15.7-15c1.7-1.3,3.6-2.4,5.5-3.2c1.2-0.5,2-1.6,3.3-1.9c3.8-1.1,6.2,0.1,7.9,4.2
	c0.4,0.8,0.8,1.7,1.2,2.5c-0.4,1.2-0.3,2.4-0.9,3.5c-3.8,5.3-9.5,8.6-14.4,12.6c-9.4,7.5-18,15.9-26.7,24.2
	C78.9,157.9,77.3,160.3,74.3,160.6z"/>
<path class="st11" d="M64.5,125.1c-0.1-1.6,1.4-2.1,2.1-3.2c1.5-2,3.8-2.9,5.5-4.6c0.2-0.2,0.5-0.5,0.8-0.7c1.9-1.3,3.7-2.8,5.2-4.5
	c1.5-1.4,3.2-2.5,5.1-3.4c5.9-3.2,11.9-6.4,17.5-10.1c5-3.3,10.3-6.2,15.3-9.4c7.3-4.7,15-8.7,22.6-12.7c0.7-0.4,1.4-0.6,2.2-0.6
	c1.2,0.2,2,0.6,1.4,2l-1.7,2.5c-15,5.4-28.3,13.9-41.4,22.9c-10.4,7.1-20.9,14.1-31.3,21.1C66.9,125,65.7,125.3,64.5,125.1z"/>
<path class="st12" d="M105,114.1c-4.1,7.9-12,12.1-17.9,18.2c-5.7,5.9-12.2,11-17.4,17.3c-0.7-0.2-1.2-0.8-1.4-1.5
	c0.7-0.8,1.4-1.7,2.1-2.5c0.1-0.2,0.2-0.3,0.2-0.5c1.7-1.6,3.4-3.2,5-4.9c5.8-6.4,12.5-12,18.4-18.3c1.2-2.2,3.8-2.8,5.4-4.6
	C101.4,116.4,102.9,114.6,105,114.1z"/>
<path class="st13" d="M121.7,113.2c-3.8-4.6-5.2-4.7-11.1-2.3c0.6-1,1.5-1.8,2.6-2.3c3.4-1.5,6.7-3.3,9.1-6.2
	C120.4,106,122.6,109.7,121.7,113.2z"/>
<path class="st14" d="M74.3,160.6c4.1-2.4,7.1-6,10.4-9.3c10.7-10.5,22.1-20.2,33.8-29.6c1.1-0.9,2.1-1.9,3.1-2.9
	c0.5-0.4,1-1.1,1.6-0.6c1,0.7,1.2,2,0.6,2.9c0,0,0,0,0,0c-0.7,1.4-1.7,2.6-3.1,3.4c-10.1,6.1-19.5,13.2-28.1,21.2
	c-6.1,5.8-11.4,12.7-18.8,17.1C73.8,162.1,74.1,161.3,74.3,160.6z"/>
<path class="st13" d="M123.7,121.1c-0.6-0.9,0.5-3.2-2.1-2.4c0.2-1.1-0.5-2.6,1.3-3c1.3,1.7,2.6,3.5,1.4,5.8
	C124,121.5,123.8,121.3,123.7,121.1z"/>
<path class="st15" d="M140.6,76.3l-24.4,13.4c-1.5,0.4-3.4,1.5-3.2-1.6c2.9-3.2,6.7-5,10.3-7.1c6.4-3.6,12.8-7.2,19.2-10.9
	c1-0.6,2.2-1.7,3.1-0.7c1,1.1-0.5,2-1.1,2.9C143.5,74,142.7,75.9,140.6,76.3z"/>
<path class="st16" d="M116.2,81.1c-5.5,4.2-11,8.4-16.6,12.5c-1.4,0.8-2.5,2-3.2,3.5l2.2-0.5l0.4,0.4c-0.9,2.7-3.4,3.7-5.5,5.1
	c-2,1.4-4.1,2.7-6.2,3.9c-0.3,0.2-0.7,0.3-1,0.5c-1,0.5-2.2,1.6-3.1,0.5c-1-1.3,0.6-2.2,1.3-3.1c0.3-0.2,0.5-0.5,0.9-0.7
	c1.8-1.3,3.7-2.6,4.9-4.6c5-5.1,11-8.9,16.5-13.3c1.3-0.8,2.6-1.7,3.8-2.8c0.3-0.2,0.6-0.4,0.9-0.6c1.2-0.6,2.3-1.7,3.9-1.5
	C115.7,80.6,116,80.9,116.2,81.1z"/>
<path class="st17" d="M116.2,81.1l-1-0.1c-0.2-2,1.4-2.7,2.7-3.5c5.8-3.8,11.2-8,17.4-11.1c0.5-0.2-0.5-0.5-0.1-0.1
	c-2.4,1-4.3,1-4.3-2.4l0.9-0.1c1.2,2.1,2.7,1.5,4.3,0.6c0.7-0.4,1.4-0.8,2.1,0c0.9,0.9,0.1,1.8-0.4,2.4c-2.4,2.9-5.9,4.2-8.9,6.1
	C124.6,75.5,120.4,78.4,116.2,81.1z"/>
<path class="st16" d="M123.2,81.1c-2.6,3-6.8,3.9-9.6,6.7c-3.4,3.6-7.8,5.9-11.9,8.7C101,97,100,97.6,98.9,97
	c-0.1-0.1-0.2-0.2-0.3-0.3C106.4,90.7,114.1,84.8,123.2,81.1z"/>
<path class="st18" d="M140.6,76.3c1.5-1.1,2.1-3.1,4-3.9c-0.1,2.1-1.3,3.7-2.3,5.4C142.1,76.9,141.4,76.3,140.6,76.3z"/>
<path class="st19" d="M144.2,126.1c1.1,3-0.7,5.2-2,7.6c-2.5,0.6-3.9,2.9-5.9,4.3c-1.2,0.9-2.7,1.4-4.3,1.5
	c-1.8-5.2-1.3-6.8,3.3-8.9c1.7-0.9,3.2-2.2,4.3-3.7C141.3,127.6,142.7,126.6,144.2,126.1z"/>
<path class="st20" d="M65.8,110.3c-2.6-3.5-2.9-8.3-6.4-11.4c-1.3-1.2,0.4-2,1.2-2.7c4.1-3.2,8.2-6.4,12.5-9.4
	c1.4-1,2.6-2.1,3.6-3.4c1.8-1.5,3.4-3.3,5.4-4.5c10.8-7.2,21.7-14,32.7-20.9c2.4-1.5,4.8-2.9,7.4-4.2c3.4,2.9,7.3,5.3,8.2,10.2
	c1.4,2.4,0.8,4-1.9,5.1c-4.3,2-8.3,4.3-12.1,7.1c-7.5,3.3-13.7,8.6-20.5,12.9c-9.7,6.2-19.1,12.9-28,20.1
	C67.3,109.7,66.6,110.1,65.8,110.3z"/>
<path class="st21" d="M116.2,75.6c3.3-3.1,7.3-5.6,11.5-7.2c2.4-1,3.2-2.1,2.7-4.5c0.2-0.1,0.4-0.1,0.5-0.1c0.6,3.2,3.3,1.7,5.6,2.5
	c-5,3.3-9.6,6.3-14.2,9.3c-2.5,1.6-5.2,2.9-7.1,5.3c-1.5,0-2.1,1.9-3.7,1.8c-0.7-1.8,0.9-2.4,1.8-3.3
	C114.4,78.3,115.7,77.3,116.2,75.6z"/>
<path class="st22" d="M105.6,20.2c-4.5-0.3-7.3,3.1-10.9,4.8c-1.3,0.6-2.3,1.8-3.9,1.7c-1.1-0.1-0.8-0.8-0.5-1.4
	c0.5-1.1,1.6-1.7,2.3-2.6c1.1-1.4,3.7-2.4,3.3-4c-0.6-2.2-3.5-1.8-5.4-2.4c-0.9-0.3-1.6-1-2.1-1.8c-0.2-0.3-0.1-0.7,0.1-1.1
	c4.5,0.6,8.8,2.5,13.4,1c0.8-0.2,1.7,0.8,1.4,1.4C102.1,18.5,105.2,18.7,105.6,20.2z"/>
<path class="st23" d="M88.5,13.5c0,0.2,0.1,0.5,0.1,0.7c-0.5,0.6-1.4,0.9-2.1,0.7c-2.8-0.7-4.7,0.1-6.2,2.6c-1,1.8-2.7,2.2-4.7,1.4
	c-2-0.8-4.3-1.1-6-2.6c-0.7-0.8-1.4-1.6-0.7-2.7c0-0.2,0-0.3,0.1-0.5c1.5,1.4,3.3,2.4,5.3,2.9c2,0.7,3.4,1,4.6-1.6
	c1.3-2.8,3.9-3.8,6.8-2C86.5,13,87.5,13.3,88.5,13.5z"/>
<path class="st24" d="M5.3,65.3c-5.2-2.6-6-8.7-1.8-12.6c3.8-3.5,7.4-7.3,11.1-10.9c1.7-1.2,3-2.9,4.7-4l0,0
	c1.1-2.3,3.2-3.8,5.2-5.3c1.6-0.8,3-1.7,2.5-3.8c1-2.6,3.8-3,5.7-4.4c7.4-5.5,15.2-10.5,22.8-15.8c1-0.7,1.9-1.4,3.2-1.3
	c0.4,0.1,0.7,0.3,1,0.6c0.1,3.4,3.4,3,5.3,4.2c0.7,2.3-0.6,3.7-2.2,5C49.8,27,38.3,38.5,26.1,49.2c-5.4,4.8-10.5,9.9-15.7,14.9
	C9,65.5,7.5,66.9,5.3,65.3z"/>
<path class="st25" d="M58.6,7.8c-8.3,5.6-16.6,11-24.7,16.8c-2.2,1.6-5,2.2-6.8,4.5c-1.4,2.3-4.2,3-5.9,5c-1.1,0.9-2.3,1.6-3.6,2.1
	l0,0c-1.7,1.5-3.7,2.6-5.5,4c-2,1.4-4,2.8-6,4.3c-2,1.5-3.5,2.3-3.5-1.3c0-0.9-0.5-1.8-1.3-2.3c2.9-7.1,5.7-14.2,12.7-18.5
	c1.4-0.9,2.7-2.1,3.7-3.5c1-3,4-3.9,6.1-5.7c4.4-3.9,9.5-6.8,15-8.6c0-0.2,0-0.4,0.1-0.6c5.6-2.3,11.6-1.3,17.3-2.4l3.1,0
	C60.5,3.8,61.8,6.1,58.6,7.8z"/>
<path class="st26" d="M68.9,13.6l0.8,2.2c-11.9,9.8-23.5,19.9-35,30.2c-8.1,7.3-15.2,15.5-23.6,22.4c-1.3,0.8-2.6,1-3.6-0.5l0-0.1
	c-0.2-0.5-0.1-1.1,0.3-1.4c11-10.2,21.8-20.6,33-30.6c8.3-7.4,16.7-14.6,25-21.9c0.6-0.5,1.2-1,2.1-0.6L68.9,13.6z"/>
<path class="st27" d="M67.9,13.2C52.8,25.9,38,38.9,23.7,52.5c-5.4,5.1-10.8,10.2-16.2,15.2c-0.2,0-0.5,0-0.7-0.1
	c-0.5-0.8-1-1.5-1.4-2.3c2.1,0.4,3.4-0.7,4.8-2.1c10.8-11.4,22.9-21.5,34.5-32c5.8-5.2,11.1-11.1,18-15.1c1.5-0.9,1.5-2.7,2.3-4
	C66,11.8,67.2,12.2,67.9,13.2z"/>
<path class="st28" d="M116.2,75.6c1.4,1.4,0.3,2.2-0.6,3.1c-1.3,1.3-3.4,2-4,4.1l0,0c-1.6,0.7-3.1,1.5-4,3.1L90.9,99.1
	c-1.7,1.7-3.6,3.3-5.5,4.7l0,0c-4.7,4.5-9.4,9.1-14.5,13.3c-1.4,0.6-2.9,2.3-4.4,0.1c-0.9-2.2-0.6-4.6-0.8-6.9c2.9-4,7.1-6.4,11-9.2
	c11.3-8.5,23.4-15.9,35-23.9C113.2,76.3,114.6,75.8,116.2,75.6z"/>
<path class="st29" d="M43.2,76.2c-0.2-0.1-0.2-0.3-0.2-0.5c2.8-2.1,5.7-4,8.4-6.2c0.6-0.7,1.7-0.9,2.5-0.3l3.9-1.2
	C55.1,70.8,53,72.9,51,75c-2.6,2.7-2.3,3.6,1.4,4.5c3.1,0.8,6.1,1.7,7.8,4.7l0.1,0.2c-0.7,0.3-0.2,1.9-1.6,1.5l-0.8-0.8
	c-0.6-2.9-2.5-4-5.3-3.9c-1.7,0.1-3.5,0-4.2-2C47.5,76.7,45.5,76.2,43.2,76.2z"/>
<path class="st30" d="M58.7,85.9l1.6-1.5c0.2,2.4-3.1,5.7,1.7,7c-0.4,0.5-0.8,1-1.3,1.4c-1,0.7-1.9,2.3-3.3,1.5
	c-1.3-0.8,0-2.1,0.2-3.1C57.9,89.4,57.6,87.5,58.7,85.9z"/>
<path class="st31" d="M66.6,117.2c1.5,1.3,2.6-0.4,4-0.6c0.7,0.3,1.7-0.2,2.2,0.6c-1.5,2.3-3.8,3.5-6.2,4.6
	C67.4,120.3,66.3,118.7,66.6,117.2z"/>
<path class="st32" d="M90.3,15.7c0.4,0,0.8,0,1.2,0c2.4,0,5.2,0.7,6.1,2.5c1.2,2.1-2.5,2.3-3.2,4.1c-0.7,1.9-3.8,1.9-3.6,4.5
	C76.2,35.5,63,46.2,50.4,57.5c-6.7,6-13.3,12.2-19.9,18.3c-1,1-2.3,1.8-2.5,3.4c-0.9,0.1-1.8,0.2-2.7,0.4
	c-7.6,1.4-10.2,0.1-13.7-6.8c-0.1-1.5,1-2.3,1.7-3.5c5.3-5.5,12-9.2,18-13.9c10.4-8.1,21.1-15.9,32.1-23.2
	c7.9-5.2,15.9-10.1,23.8-15.2C88,16.3,89.1,15.9,90.3,15.7z"/>
<path class="st33" d="M70.5,145.6c-2.8,0.2-3.5-1.7-3.9-3.9c4.3-3.9,9.1-7.4,14.1-10.4c2.5-0.4,3.3,0.6,1.7,2.6
	c-2.1,2.4-4.4,4.7-6.8,6.9C74,142.6,72.3,144.2,70.5,145.6L70.5,145.6z"/>
<path class="st34" d="M75.2,140.9c2.2-2.3,4.3-4.6,6.5-6.8c1.7-1.7,1-2.4-1-2.7c3.8-4.1,8.8-6.6,13.4-9.5c0.3,3.2-2.6,4.7-4.4,5.9
	c-5.3,3.7-8.5,9.4-13.7,13.1C75.7,141.3,75.4,141.2,75.2,140.9z"/>
<path class="st35" d="M144.2,126.1c-1.2,2.5-2.6,3.5-4.6,0.7c0.3-0.7,0.7-1.3,1.1-1.9c0.7-0.8,1.1-2.4,2.6-1.8
	C144.7,123.6,144.3,125,144.2,126.1z"/>
<path class="st18" d="M98.9,97l14.7-9.1c-0.7,2.6,1.3,1.8,2.5,1.9c-4.6,4-10.3,6.3-15.3,9.9c-4.9,3.5-10.6,5.5-15.4,9.2
	c-0.8,0.5-1.7,0.7-2.6,0.4c0.5-2.3,2.9-2.5,4.3-3.8C90.9,102.4,95.4,100.4,98.9,97z"/>
<path class="st36" d="M87.1,105.6c-1.4,1.3-2.9,2.5-4.3,3.8l-4.5,3.3c-1.9,1.4-3.8,3-5.6,4.7l0,0c-0.8-0.2-1.7,0.2-2.2-0.6
	c4.7-4.6,9.3-9.2,14.8-12.8c-0.6,0.9-1.2,1.8-1.9,2.8C85.1,107,85.7,105,87.1,105.6z"/>
<path class="st31" d="M72.8,117.3c1.1-2.2,3.2-3.9,5.6-4.7C77,114.7,75.1,116.3,72.8,117.3z"/>
<path class="st9" d="M75.2,140.9l0.8,0c-1.6,1.8-2.8,4.1-5.5,4.7C71.8,143.8,73.3,142.2,75.2,140.9z"/>
<path class="st36" d="M85.4,103.9c1.4-2,3.3-3.6,5.5-4.7C89.9,101.4,87.8,103.2,85.4,103.9z"/>
<path class="st21" d="M107.5,85.9c0.3-2.4,1.7-3.3,4-3.1C110.7,84.4,109,85,107.5,85.9z"/>
<path class="st37" d="M82.4,79.6c0.7-1.8-7.5,3.4-8.7,3.5c6.3-4.1,19.5-13.7,26.1-17.2c5.1-2.7,9.8-6.5,15.7-7.6
	c-1.8,2.8-5,3.5-7.6,5.2C99.4,69,90.9,74.3,82.4,79.6z"/>
<path class="st38" d="M13.8,69.9c-1.6,0.1-2.4-1-3.1-2.2c7.3-6.9,14.6-13.8,21.8-20.8c7.3-7.3,15.4-13.7,23.1-20.5
	c3.8-3.4,7.7-6.6,11.6-9.9c0.7-0.5,1.7-0.8,2.6-0.7c0.7,0.3,1.4,0.6,2.1,0.9c1.7,1.1,3.7,1.2,5.5,1.7c2.3,0.7,2.6-2.3,3.7-3.8
	c0.9-1.3,2.2-1.3,3.5-1.1c1.4,0.2,2.8,0.5,4.2,0.7c0.6,0.5,1.2,1,1.7,1.5C85,20.1,78.8,23.2,73.1,27c-12.9,8.5-25.8,17.1-37.9,26.8
	C28.2,59.3,20.5,64,13.8,69.9z"/>
<path class="st39" d="M24.8,33c0.2-0.6,1-1.7-0.7-1.1c-1.2,0.5-2.3,1.1-3.4,1.8c1.5-2.5,4-3.5,6.4-4.8C28.9,30.8,28.5,31.5,24.8,33z
	"/>
<path class="st4" d="M57.9,85.1l-0.8,0.8c-1.7-1.5-3.3-2.9-5.9-2.5c-1.1,0.2-2.1-0.3-2.8-1.2c-3.1-4.1-6.9-4.8-11.2-2.1
	c-3.5,2.3-7.8-0.1-11.2,1.7c-6.4,3.3-9.8-0.7-14-4.3c-3.2-2.6-5.5-6-6.8-9.9c0.4-0.4,0.9-0.6,1.5-0.6c0.2,0,0.4,0.1,0.5,0.1
	c0.3,0.2,0.6,0.4,0.8,0.7c1.1,1.8,1.2,4.4,3.9,4.9c0.8,0.6,1.5,1.4,2.1,2.3c2.7,3.7,5.9,5.8,10.6,3.7c1.1-0.3,2.3-0.4,3.5-0.3
	c0.8,0,1.6,0,2.4,0c4.6,0.9,8.2-2.6,12.5-3.1c2.5-0.3,4.7,0.4,5.9,2.8c1,1.9,2.6,1.8,4.3,2C56.8,80.5,58,81.8,57.9,85.1z"/>
<path class="st4" d="M69,11.7l0,1.4l-0.2,0.5c-0.3,0.1-0.7,0.1-1,0c-1.1-0.5-2.3-0.8-3.5-0.9c-2.3-1.2-6-0.8-5.4-5
	c0.8-1.7,2.6-3.4-0.2-5c-0.9-0.1-1.9-0.1-2.8,0c-5.3,0.1-10.8-0.8-15.7,1.9c-0.3,0.2-0.7,0.4-1,0.6c-5.9,2.1-12.4,2.9-17,8
	c-1.6,1.8-3.5,3.1-3.7,5.7c-0.4,1.4-1.3,2.6-2.6,3.3c-6.1,3.5-9.2,9.4-12.1,15.4c-0.7,1.3-1,3-2.8,3.6c-1.9-1.5-0.5-2.8,0.2-4.1
	c3.6-5.7,5.7-12.6,12.3-16.1c2-0.9,3.3-2.8,3.4-5c0-1.5,1-2.3,2-3.2c1.8-1.5,3.7-2.9,5.4-4.5c2.5-2.2,4.9-4.2,8.6-3.9
	c1.9,0.1,3.7-1.1,5.5-1.9C44.6-0.4,51.3,1,57.7,0.1c1.6-0.2,4.5,0.1,4,2.6C60.6,8.8,64.6,10.3,69,11.7z"/>
<path class="st4" d="M64.5,125.1c-0.6,1.2-1.2,2.4-1.8,3.6c-0.6-2.4,0.4-4.4,1.7-6.2c0.9-1.2,2-2.6,1.2-3.9
	c-2.2-3.4-0.9-7.6-2.8-11.2c-1.1-2-1.6-4.4-3.3-6.1c-4.5-4.6-5.2-9.7-2.5-15.4c0-0.6,0.5-1.1,1.1-1.1c0.5,0.2,0.9,0.7,0.9,1.2
	c-0.1,2.4-0.6,4.9-1.3,7.2c1.7-0.3,2.5-1.6,3.5-2.4c3.8-3.6,8.6-6,12.9-8.9c1.4,0,3.9-2.1,3.2,1.7c-1.1,2-2.7,3.6-4.6,4.7
	c-3.7,2.5-7.3,5.1-10.7,8c-1.2,1-2.4,2-0.9,3.5c3,3,3.6,7.2,5.3,10.8c0.4,2.1,0.5,4.2,1,6.3c0.2,1.7,0.6,3.4-0.1,5.1
	C66.7,123.2,65.7,124.3,64.5,125.1z"/>
<path class="st4" d="M73.6,162.8c-0.1,0.9-0.2,1.8-0.3,2.7c-3.7-5.2-6.2-10.8-5.5-17.4c0.3-0.1,0.7,0,1,0.2c0.8,0.5,1.3,1.2,1.5,2.1
	c0.8,3.5,0.2,7.6,4,9.9C75.1,161.4,74.1,162,73.6,162.8z"/>
<path class="st4" d="M139.8,144.7c0-3.9,2.9-7.1,2.3-11.1c-0.4-2.6,2-4.7,1.3-7.4c-1.2-2.1-1.3-2.1-3.3,0.9
	c-0.7,1.3-1.5,2.7-2.8,3.2c-4.4,1.6-5.8,4.8-5.4,9.1c-0.9,1.8-1.3,4-3.2,5.3c1.4-3.3,1.9-6.9,1.6-10.5c-0.1-1.8,1-3.4,2.7-4
	c3.7-1.3,5.5-4.2,7.4-7.2c0.8-1.2,1.4-2.2,3-1.9c1.7,0.4,1.7,1.7,1.8,3.1C145.5,131.6,143.4,138.4,139.8,144.7z"/>
<path class="st40" d="M75.6,82.3c1.5-2.7,5.1-2.6,6.8-4.8c0.9-0.5,1.8-0.7,2.5,0.1c0.4,0.6-0.2,1.1-0.7,1.6
	c-1.9,1.4-19.7,17.8-23.6,17C60.8,95,57.7,95.6,75.6,82.3z"/>
</svg>
