<svg xmlns="http://www.w3.org/2000/svg" xmlns:xlink="http://www.w3.org/1999/xlink" width="147.949" height="69.478" viewBox="0 0 147.949 69.478"><defs><style>.a{fill-rule:evenodd;fill:url(#a);}</style><linearGradient id="a" x1="0.5" x2="0.5" y2="1" gradientUnits="objectBoundingBox"><stop offset="0" stop-color="#ed1500"/><stop offset="1" stop-color="#d70900"/></linearGradient></defs><g transform="translate(0 0)"><path class="a" d="M136.957,65.744l.053-.053v1.841a2.249,2.249,0,0,1-1.683.842c-.736,0-1.262-.263-1.262-1.1,0-1.262,1.367-1.578,2.1-1.578.105,0,.526.053.789.053Zm-77.1,0c.053.053.105.053.158-.053V67.48a2.249,2.249,0,0,1-1.736.894c-.684,0-1.21-.21-1.21-1.052,0-1.262,1.262-1.63,2.051-1.63a4.3,4.3,0,0,1,.736.053Zm-6.732.473c0,1.736-1.315,1.946-2.472,1.946a6.082,6.082,0,0,1-.894-.053V64.377a6.247,6.247,0,0,0,1,0c1.315,0,2.367.263,2.367,1.841ZM40.866,63.745v4a1.936,1.936,0,0,1-1.315.579c-1.788,0-2.262-1.262-2.262-2.577,0-1.21.631-2.682,2.209-2.682a1.528,1.528,0,0,1,1.368.684Zm-8.52-.631a2.137,2.137,0,0,1,1.262,1.42V64.8H29.716V64.64a1.95,1.95,0,0,1,2-1.578,3.019,3.019,0,0,1,.631.053Zm59.643,2.525c0,1.052-.316,2.682-1.946,2.682-1.683,0-1.841-1.683-1.841-2.63s.263-2.682,1.893-2.682S91.988,64.64,91.988,65.639Zm32.188-3.576v7.258h-1.262V63.114h-1V62.062h2.262Zm-102.981,0v7.258H19.881V63.114h-1V62.062H21.2Zm86.939,4.1h-2.788l1.473-4.155Zm29.085-3.892c.684.263,1.157,1.578,1.157,2.156v3.419a1.255,1.255,0,0,0,.579.947v.631h-.631c-.421-.105-1.052-.473-1.157-.894a3.263,3.263,0,0,1-2.314.947,2.13,2.13,0,0,1-2.1-2.209c0-1.946,2.1-2.63,3.366-2.63.105,0,.579.105.894.158a.4.4,0,0,0,.053-.263,1.439,1.439,0,0,0-1.63-1.473,2.453,2.453,0,0,0-1.736.631,4.357,4.357,0,0,1-.579-1.052c0-.105.473-.368.684-.421a3.03,3.03,0,0,1,.894-.263,3.234,3.234,0,0,1,.684-.053,5.463,5.463,0,0,1,1.841.368Zm-5.523.368c-.158.263-.368.579-.579.894a2.991,2.991,0,0,0-1.736-.526c-1.841,0-2.262,1.578-2.262,2.735,0,1.525.736,2.63,2.314,2.63a3.433,3.433,0,0,0,1.788-.684l.526,1.052a5.688,5.688,0,0,1-2.577.736,3.444,3.444,0,0,1-3.366-2.788c0-.105-.053-.316-.053-.421v-1a3.456,3.456,0,0,1,3.682-3.366,4.6,4.6,0,0,1,2.262.736Zm-10.361-.631-.473,1.262a5.038,5.038,0,0,0-.894-.263,1.9,1.9,0,0,0-1.683,1.683v4.628h-1.315V62.062h1.315a6.361,6.361,0,0,0,.053,1,2.174,2.174,0,0,1,2-1.157,9.275,9.275,0,0,1,1,.105Zm-22.143.105c-.158.421-.316.789-.473,1.157a5.039,5.039,0,0,0-.894-.263,1.9,1.9,0,0,0-1.683,1.683v4.628H94.829V62.062h1.315a6.367,6.367,0,0,0,.053,1,2.174,2.174,0,0,1,2-1.157,5.085,5.085,0,0,1,1,.21Zm-5.838,3.524c0,1.841-.789,3.839-3.261,3.839-2.419,0-3.313-2-3.313-3.839,0-1.946,1.1-3.734,3.313-3.734C92.62,61.9,93.356,63.851,93.356,65.639ZM67.374,61.957c.894,0,1.736,1.315,1.736,2.1v5.26H67.848V64.534a1.391,1.391,0,0,0-1.473-1.525c-.158,0-.263-.053-.316,0-.316.053-1.42.526-1.42.947v5.365H63.377V62.062h.894c.105.263.263.579.368.842a2.532,2.532,0,0,1,2.1-1c.105,0,.421.053.631.053Zm-6.311,1.367c.053.263.263.684.263.842v3.419c.105.316.053.894.579,1.21v.631h-.579c-.368-.053-1.052-.368-1.157-.894-.316.631-1.841.947-2.367.947a2.165,2.165,0,0,1-2.1-2.209c0-1.946,2.1-2.63,3.366-2.63.105,0,.631.105.947.158.053-.053.053-.053.053-.21a1.463,1.463,0,0,0-1.63-1.525,2.31,2.31,0,0,0-1.736.631,2.684,2.684,0,0,1-.631-1.052A4.316,4.316,0,0,1,58.38,61.9c.736,0,2.314.21,2.682,1.42Zm-26.14,1.683a4.858,4.858,0,0,1-.053.789h-5.26v.421a2.221,2.221,0,0,0,2.314,2.156,2.963,2.963,0,0,0,1.788-.631c.21.263.368.579.579.894a4.881,4.881,0,0,1-2.63.842,3.448,3.448,0,0,1-3.419-3.734c0-1.946,1.21-3.839,3.419-3.839a2.944,2.944,0,0,1,3.261,3.1ZM16.2,62.115a2.915,2.915,0,0,1,.736.684,4.9,4.9,0,0,1,.473,1.262v5.26H16.147V64.534c-.21-1.21-.631-1.525-1.473-1.525a2.1,2.1,0,0,0-1.736.947v5.365H11.676V62.062h.894c.105.263.263.579.368.842a2.532,2.532,0,0,1,2.1-1,4.14,4.14,0,0,1,1.157.21Zm36.4-.316c0,1.367-1.157,1.525-2.051,1.525h-.789v-2.84H50.6c.789,0,2,0,2,1.315Zm-27.612.263h2v1h-2v4.1c.263.947.631,1.21,1.262,1.21a6.067,6.067,0,0,0,1.052-.263c.053.368.158.789.21,1.157-.579.105-1.63.21-1.788.21a2.164,2.164,0,0,1-2.051-2.051V63.062h-.842v-1h.842V60.537a13.147,13.147,0,0,1,1.315-.473v2ZM4.1,59.38v6.732c.21,1.578,1.052,2.156,2.1,2.156a2.168,2.168,0,0,0,2.156-1.63V59.38H9.73V66.8c-.316,2.209-2.156,2.682-3.524,2.682A3.278,3.278,0,0,1,3,67.743a5.332,5.332,0,0,1-.21-.947V59.38H4.1Zm120.284.684a.761.761,0,0,1-.789.841.8.8,0,0,1-.789-.789.7.7,0,0,1,.789-.789.706.706,0,0,1,.789.736Zm-102.981,0a.863.863,0,0,1-.842.841.8.8,0,0,1-.789-.789.772.772,0,0,1,.789-.789.749.749,0,0,1,.842.736Zm32.609,1.63a2.2,2.2,0,0,1-1.42,2l-.053.105a2.517,2.517,0,0,1,2.1,2.63c0,.105-.105.579-.158.842-.158,1.157-2,2.051-2.893,2.051H48.335V59.275h2.472c1.42,0,3.208.421,3.208,2.419Zm53.016-2.472,3.787,10.1h-1.525c-.21-.684-.473-1.42-.736-2.1H104.98a17.092,17.092,0,0,0-.789,2.1h-1.525c1.315-3.366,2.682-6.732,4-10.1h.368Zm8.994.053a8.339,8.339,0,0,1-.421.947c-.158,0-.526-.105-.684-.105a1.438,1.438,0,0,0-1.368,1.578c0,.105.053.21.053.368h1.473v1.052h-1.473v6.206h-1.262V63.114h-1.052V62.062h1.052c-.053-1.736.842-3,2.472-3a9.73,9.73,0,0,1,1.21.21Zm-29.611,0-.316.947a4.123,4.123,0,0,0-.736-.105,1.458,1.458,0,0,0-1.367,1.21v.736h1.525v1.052H83.994v6.206H82.732V63.114H81.68V62.062h1.052c0-1.788.894-3,2.472-3a7.3,7.3,0,0,1,1.21.21Zm-14.148-.21v6.259L75,62.062h1.525L74.264,64.8l2.788,4.523h-1.42L73.37,65.692c-.316.368-.736.789-1.1,1.157v2.472H70.951V59.064h1.315Zm-30.084,0V69.321H40.919a1.458,1.458,0,0,0-.053-.473,2.964,2.964,0,0,1-1.893.579c-2.314,0-3.1-1.946-3.1-3.576s1.1-3.945,3.366-3.945a3.561,3.561,0,0,1,1.683.473V59.065h1.262ZM48.756,34.24c3.1.684,4.471,2.419,4.471,4.839a8.446,8.446,0,0,1-.21,1.63,4.958,4.958,0,0,1-.947,1.63c-1.554,1.99-4.523,3.576-6.364,3.576h-5.26c.842-3.839,1.578-7.784,2.419-11.571,0-.105.053-.158.158-.21l4-.105c.105,0,1.157.105,1.736.21Zm34.87,4.418h-9.52l6.943-10.624ZM54.12,24.825c0,.105-.21,1.1-.263,1.63a5.518,5.518,0,0,1-2.577,3.629,21.025,21.025,0,0,1-3,1.578H43.6c.158-.842.316-1.736.473-2.577.105-.526.263-1.1.316-1.63.105-.526.263-1.1.316-1.63.105-.526.263-1.1.316-1.63.105-.526.149-.815.263-1.63.114-.938.044-.973.579-.947l3.945-.105c1.683,0,4.313.894,4.313,3.313Zm31.241-7.469,7.889,32.451h-7.1l-1.262-6.364H71.161l-4.208,6.364H61.063L83.047,17.356h2.314Zm-31.4,0c4.734.526,6.943,2.735,6.943,6.417,0,3.945-2.735,6.89-7.521,8.468a.316.316,0,0,0,.21.053c3.524.526,6.048,2.577,6.048,5.785,0,5.1-3.156,9.835-9.993,11.361a29.4,29.4,0,0,1-3.156.473H33.082l6.785-32.556h14.1Zm-42.76,0c-.526,2.788-1.1,5.417-1.63,8.047-.421,1.946-.842,4-1.21,6C7.837,34.345,7,37.185,7,40.13c0,3.208,1.052,6.1,5.207,6.1,4,0,7.942-2.63,9.2-7.994,1.63-6.943,3-13.938,4.471-20.88h6v.158c-1.683,7.626-3.261,15.253-5,22.826a11.145,11.145,0,0,1-2.051,3.734,15.062,15.062,0,0,1-10.992,6.206c-.421.053-1.157.158-1.315.158H9.309c-.631-.053-1.315-.158-1.893-.263s-1.21-.263-1.788-.421C1.578,48.756,0,44.864,0,41.971V40.709c.053-.368.053-.789.105-1.21C1.63,32.136,3.156,24.72,4.681,17.357H11.2ZM120.232,49.6c-.842.105-2.472.316-2.63.316h-13.1l8.836-41.5c4.628,9.046,9.257,18.2,13.833,27.349a17.626,17.626,0,0,1,1.525,6.206c0,4.576-3.208,6.785-8.468,7.626Zm18.829-8.1c-2.682-5.207-5.365-10.466-7.994-15.673-1.473-2.893-2.945-5.891-4.418-8.731-.473-1-1-1.893-1.42-2.84A20.7,20.7,0,0,1,123.7,8.468v-1.1a8.121,8.121,0,0,1,.263-1.63c1.578-5,7.416-5.47,10.887-5.733h13.1Z" transform="translate(0 0)"/></g></svg>